<svg width="7" height="12" viewBox="0 0 7 12" fill="none" xmlns="http://www.w3.org/2000/svg">
<mask id="path-1-inside-1_1025_5508" fill="white">
<path d="M7 12L-2.62268e-07 6L7 0"/>
</mask>
<path d="M5.69842 13.5185C6.53707 14.2374 7.79967 14.1402 8.51851 13.3016C9.23736 12.4629 9.14023 11.2003 8.30158 10.4815L5.69842 13.5185ZM-2.62268e-07 6L-1.30158 4.48149C-1.74488 4.86145 -2 5.41615 -2 6C-2 6.58385 -1.74488 7.13855 -1.30158 7.51851L-2.62268e-07 6ZM8.30158 1.51851C9.14023 0.799669 9.23736 -0.462931 8.51851 -1.30158C7.79967 -2.14023 6.53707 -2.23736 5.69842 -1.51851L8.30158 1.51851ZM8.30158 10.4815L1.30158 4.48149L-1.30158 7.51851L5.69842 13.5185L8.30158 10.4815ZM1.30158 7.51851L8.30158 1.51851L5.69842 -1.51851L-1.30158 4.48149L1.30158 7.51851Z" fill="#747070" mask="url(#path-1-inside-1_1025_5508)"/>
</svg>
