<svg width="7" height="12" viewBox="0 0 7 12" fill="none" xmlns="http://www.w3.org/2000/svg">
<mask id="path-1-inside-1_1025_5512" fill="white">
<path d="M-5.24537e-07 0L7 6L0 12"/>
</mask>
<path d="M1.30158 -1.51851C0.46293 -2.23736 -0.79967 -2.14023 -1.51851 -1.30158C-2.23736 -0.462931 -2.14023 0.799669 -1.30158 1.51851L1.30158 -1.51851ZM7 6L8.30158 7.51851C8.74487 7.13855 9 6.58385 9 6C9 5.41615 8.74487 4.86145 8.30158 4.48149L7 6ZM-1.30158 10.4815C-2.14023 11.2003 -2.23736 12.4629 -1.51851 13.3016C-0.799669 14.1402 0.462931 14.2374 1.30158 13.5185L-1.30158 10.4815ZM-1.30158 1.51851L5.69842 7.51851L8.30158 4.48149L1.30158 -1.51851L-1.30158 1.51851ZM5.69842 4.48149L-1.30158 10.4815L1.30158 13.5185L8.30158 7.51851L5.69842 4.48149Z" fill="#747070" mask="url(#path-1-inside-1_1025_5512)"/>
</svg>
