<svg width="25" height="25" viewBox="0 0 25 25" fill="none" xmlns="http://www.w3.org/2000/svg">
<path d="M7.29167 15.6251H14.5833V17.7084H7.29167V15.6251ZM7.29167 11.4584H17.7083V13.5417H7.29167V11.4584ZM7.29167 7.29175H17.7083V9.37508H7.29167V7.29175ZM19.7917 3.12508H15.4375C15 1.91675 13.8542 1.04175 12.5 1.04175C11.1458 1.04175 10 1.91675 9.5625 3.12508H5.20833C5.0625 3.12508 4.92708 3.1355 4.79167 3.16675C4.38542 3.25008 4.02083 3.45841 3.73958 3.73966C3.55208 3.92716 3.39583 4.15633 3.29167 4.40633C3.1875 4.64592 3.125 4.91675 3.125 5.20842V19.7917C3.125 20.073 3.1875 20.3542 3.29167 20.6042C3.39583 20.8542 3.55208 21.073 3.73958 21.2709C4.02083 21.5522 4.38542 21.7605 4.79167 21.8438C4.92708 21.8647 5.0625 21.8751 5.20833 21.8751H19.7917C20.9375 21.8751 21.875 20.9376 21.875 19.7917V5.20842C21.875 4.06258 20.9375 3.12508 19.7917 3.12508ZM12.5 2.86466C12.9271 2.86466 13.2812 3.21883 13.2812 3.64592C13.2812 4.073 12.9271 4.42717 12.5 4.42717C12.0729 4.42717 11.7188 4.073 11.7188 3.64592C11.7188 3.21883 12.0729 2.86466 12.5 2.86466ZM19.7917 19.7917H5.20833V5.20842H19.7917V19.7917Z" fill="white"/>
</svg>
