<svg width="24" height="26" viewBox="0 0 24 26" fill="none" xmlns="http://www.w3.org/2000/svg">
<path d="M17.0278 3.82746C17.334 4.00133 17.6966 4.04702 18.0363 3.95458C18.3761 3.86214 18.6656 3.63906 18.8415 3.33402C18.9871 3.07711 19.2138 2.87579 19.4861 2.76161C19.7585 2.64744 20.061 2.62688 20.3462 2.70315C20.6315 2.77943 20.8834 2.94823 21.0624 3.18308C21.2414 3.41793 21.3374 3.70555 21.3353 4.00083C21.3353 4.35453 21.1948 4.69373 20.9447 4.94383C20.6946 5.19393 20.3554 5.33444 20.0017 5.33444C19.648 5.33444 19.3088 5.47495 19.0587 5.72505C18.8086 5.97515 18.6681 6.31436 18.6681 6.66805C18.6681 7.02175 18.8086 7.36096 19.0587 7.61106C19.3088 7.86116 19.648 8.00166 20.0017 8.00166C20.7039 8.00121 21.3936 7.81596 22.0015 7.46453C22.6094 7.1131 23.1142 6.60786 23.465 5.99958C23.8158 5.3913 24.0003 4.70141 24 3.99923C23.9997 3.29704 23.8146 2.6073 23.4633 1.9993C23.1121 1.39131 22.6069 0.886474 21.9988 0.535529C21.3906 0.184583 20.7007 -0.000112416 19.9985 5.13327e-08C19.2963 0.000112518 18.6066 0.185029 17.9985 0.536169C17.3904 0.88731 16.8854 1.39231 16.5343 2.00041C16.4462 2.15262 16.389 2.32078 16.3661 2.49518C16.3431 2.66959 16.355 2.84681 16.4008 3.01663C16.4467 3.18645 16.5257 3.34552 16.6333 3.48468C16.7409 3.62384 16.875 3.74034 17.0278 3.82746ZM22.7623 13.3361C22.4122 13.2907 22.0584 13.3859 21.7785 13.6009C21.4985 13.8159 21.3152 14.1331 21.2687 14.483C20.9888 16.7437 19.892 18.824 18.1849 20.3322C16.4777 21.8404 14.278 22.6724 12.0001 22.6714H4.54519L5.41204 21.8045C5.66043 21.5547 5.79984 21.2167 5.79984 20.8643C5.79984 20.512 5.66043 20.174 5.41204 19.9241C4.1117 18.6187 3.22677 16.9576 2.8687 15.1502C2.51064 13.3427 2.69546 11.4697 3.39989 9.76713C4.10431 8.06453 5.29684 6.60846 6.82725 5.58235C8.35766 4.55623 10.1575 4.00595 12.0001 4.00083C12.3538 4.00083 12.693 3.86032 12.9431 3.61022C13.1932 3.36012 13.3337 3.02092 13.3337 2.66722C13.3337 2.31352 13.1932 1.97432 12.9431 1.72422C12.693 1.47411 12.3538 1.33361 12.0001 1.33361C9.74525 1.34302 7.53867 1.98739 5.63315 3.19292C3.72762 4.39845 2.20022 6.11636 1.22592 8.14985C0.251628 10.1833 -0.130147 12.4502 0.124335 14.6906C0.378817 16.931 1.25926 19.0545 2.6648 20.8177L0.384328 23.0581C0.19928 23.2457 0.0739253 23.4838 0.0240828 23.7425C-0.0257597 24.0012 0.00214297 24.2689 0.10427 24.5118C0.204318 24.7553 0.374217 24.9638 0.592556 25.1109C0.810895 25.2581 1.0679 25.3373 1.33119 25.3386H12.0001C14.9226 25.339 17.7449 24.2731 19.9375 22.3407C22.1301 20.4084 23.5423 17.7425 23.9092 14.8431C23.9336 14.6687 23.9232 14.4913 23.8787 14.3209C23.8341 14.1506 23.7563 13.9908 23.6497 13.8507C23.5431 13.7106 23.4098 13.593 23.2575 13.5047C23.1051 13.4163 22.9369 13.3591 22.7623 13.3361ZM20.5085 9.42862C20.2657 9.32121 19.9964 9.2887 19.735 9.33527L19.495 9.41529L19.2549 9.53531L19.0549 9.70868C18.9349 9.83157 18.8398 9.97648 18.7748 10.1354C18.696 10.3018 18.6593 10.485 18.6681 10.6689C18.6642 10.8467 18.696 11.0236 18.7615 11.189C18.8305 11.349 18.9301 11.494 19.0549 11.6157C19.1795 11.7393 19.3273 11.8371 19.4898 11.9035C19.6522 11.9699 19.8262 12.0035 20.0017 12.0025C20.3554 12.0025 20.6946 11.862 20.9447 11.6119C21.1948 11.3618 21.3353 11.0226 21.3353 10.6689C21.3399 10.4939 21.3033 10.3204 21.2287 10.1621C21.0854 9.84165 20.829 9.58526 20.5085 9.44196V9.42862Z" fill="white"/>
</svg>
