<svg width="30" height="24" viewBox="0 0 30 24" fill="none" xmlns="http://www.w3.org/2000/svg">
<path d="M29 18H19C18.447 18 18 18.447 18 19C18 19.553 18.447 20 19 20H28C28 21.103 27.103 22 26 22H4C2.897 22 2 21.103 2 20H11C11.553 20 12 19.553 12 19C12 18.447 11.553 18 11 18H1C0.447 18 0 18.447 0 19V20C0 22.206 1.794 24 4 24H26C28.206 24 30 22.206 30 20V19C30 18.447 29.553 18 29 18ZM2 17C2.553 17 3 16.553 3 16V3C3 2.448 3.448 2 4 2H26C26.552 2 27 2.448 27 3V16C27 16.553 27.447 17 28 17C28.553 17 29 16.553 29 16V3C29 1.346 27.654 0 26 0H4C2.346 0 1 1.346 1 3V16C1 16.553 1.447 17 2 17Z" fill="white"/>
<path d="M25 17C25.553 17 26 16.553 26 16V14C26 13.447 25.553 13 25 13H23.478C23.373 12.702 23.252 12.411 23.117 12.127L24.193 11.051C24.381 10.863 24.486 10.61 24.486 10.344C24.486 10.079 24.381 9.824 24.193 9.637L21.364 6.808C20.988 6.433 20.324 6.433 19.95 6.808L18.874 7.884C18.59 7.748 18.299 7.628 18.001 7.523V6C18.001 5.447 17.554 5 17.001 5H13.001C12.448 5 12.001 5.447 12.001 6V7.522C11.703 7.627 11.412 7.748 11.128 7.883L10.052 6.807C9.864 6.619 9.611 6.514 9.345 6.514C9.079 6.514 8.825 6.619 8.638 6.807L5.809 9.636C5.621 9.824 5.516 10.078 5.516 10.343C5.516 10.609 5.621 10.863 5.809 11.05L6.885 12.126C6.748 12.411 6.628 12.702 6.522 13H5C4.447 13 4 13.447 4 14V16C4 16.553 4.447 17 5 17C5.553 17 6 16.553 6 16V15H7.262C7.718 15 8.116 14.691 8.23 14.25C8.395 13.614 8.645 13.01 8.975 12.451C9.207 12.058 9.145 11.557 8.822 11.235L7.929 10.343L9.344 8.928L10.236 9.821C10.558 10.144 11.06 10.207 11.452 9.974C12.011 9.644 12.615 9.394 13.251 9.229C13.692 9.115 14.001 8.717 14.001 8.261V7H16.001V8.262C16.001 8.718 16.31 9.116 16.751 9.23C17.387 9.395 17.991 9.645 18.55 9.975C18.943 10.207 19.444 10.145 19.766 9.822L20.658 8.929L22.073 10.344L21.18 11.236C20.857 11.558 20.794 12.059 21.027 12.452C21.357 13.011 21.607 13.615 21.772 14.251C21.886 14.692 22.284 15.001 22.74 15.001H24V16.001C24 16.553 24.447 17 25 17Z" fill="white"/>
<path d="M15 10C11.691 10 9 12.691 9 16C9 16.553 9.447 17 10 17C10.553 17 11 16.553 11 16C11 13.794 12.794 12 15 12C17.206 12 19 13.794 19 16C19 16.553 19.447 17 20 17C20.553 17 21 16.553 21 16C21 12.691 18.309 10 15 10Z" fill="white"/>
</svg>
