<svg width="26" height="30" viewBox="0 0 26 30" fill="none" xmlns="http://www.w3.org/2000/svg">
<path d="M24.5888 7.43049L17.6166 0.681749C17.1927 0.269262 16.614 0.0343739 16.0182 0.0343739L2.88741 0C1.29475 0 0 1.28329 0 2.86449V26.4564C0 28.009 1.33485 29.3266 2.91605 29.3266H22.3373C23.8898 29.3266 25.1502 28.0376 25.1502 26.4507V8.79971C25.1502 8.26692 24.9497 7.77995 24.5888 7.43049ZM17.588 3.84414L21.1915 7.32736H18.2124C17.8801 7.32736 17.588 7.06956 17.588 6.77738V3.84414ZM22.3373 27.0351H2.91605C2.59523 27.0351 2.29159 26.7543 2.29159 26.4507V2.86449C2.29159 2.56085 2.57231 2.29159 2.88741 2.29159L15.2964 2.32597V6.77738C15.2964 8.34139 16.6026 9.61896 18.2124 9.61896H22.8586V26.4507C22.8586 26.7371 22.6638 27.0351 22.3373 27.0351Z" fill="white"/>
<path d="M4.98396 15.2907C4.98396 15.9209 5.49956 16.4365 6.12975 16.4365H16.1555C16.7857 16.4365 17.3013 15.9209 17.3013 15.2907C17.3013 14.6606 16.7857 14.145 16.1555 14.145H6.12975C5.49956 14.145 4.98396 14.6606 4.98396 15.2907ZM6.07246 11.8534H12.7181C13.3483 11.8534 13.8639 11.3378 13.8639 10.7076C13.8639 10.0774 13.3483 9.56177 12.7181 9.56177H6.07246C5.44227 9.56177 4.92667 10.0774 4.92667 10.7076C4.92667 11.3378 5.44227 11.8534 6.07246 11.8534ZM19.02 18.7281H6.12975C5.49956 18.7281 4.98396 19.2437 4.98396 19.8739C4.98396 20.5041 5.49956 21.0197 6.12975 21.0197H19.02C19.6501 21.0197 20.1658 20.5041 20.1658 19.8739C20.1658 19.2437 19.6501 18.7281 19.02 18.7281Z" fill="white"/>
</svg>
