<svg width="35" height="24" viewBox="0 0 35 24" fill="none" xmlns="http://www.w3.org/2000/svg">
<path d="M27.6119 14.7017C25.1223 14.7017 23.097 16.727 23.097 19.2166C23.097 21.7062 25.1223 23.7316 27.6119 23.7316C30.1015 23.7316 32.1269 21.7062 32.1269 19.2166C32.1269 16.727 30.1015 14.7017 27.6119 14.7017ZM27.6119 21.4927C26.3567 21.4927 25.3358 20.4718 25.3358 19.2166C25.3358 17.9614 26.3571 16.9405 27.6119 16.9405C28.8668 16.9405 29.888 17.9614 29.888 19.2166C29.888 20.4718 28.8671 21.4927 27.6119 21.4927ZM8.69388 14.7017C6.20429 14.7017 4.17892 16.727 4.17892 19.2166C4.17892 21.7062 6.20429 23.7316 8.69388 23.7316C11.1835 23.7316 13.2088 21.7062 13.2088 19.2166C13.2088 16.727 11.1835 14.7017 8.69388 14.7017ZM8.69388 21.4927C7.43866 21.4927 6.41778 20.4718 6.41778 19.2166C6.41778 17.9614 7.43907 16.9405 8.69388 16.9405C9.94876 16.9405 10.97 17.9614 10.97 19.2166C10.97 20.4718 9.94911 21.4927 8.69388 21.4927Z" fill="white"/>
<path d="M21.9776 0H2.68644C2.06812 0 1.56705 0.501146 1.56705 1.11939C1.56705 1.73771 2.06819 2.23878 2.68644 2.23878H20.8582V19.2166C20.8582 19.8349 21.3593 20.336 21.9776 20.336C22.5962 20.336 23.097 19.8348 23.097 19.2166V1.11939C23.097 0.501146 22.5959 0 21.9776 0Z" fill="white"/>
<path d="M34.8497 10.6333L31.5661 4.96164C31.4677 4.79178 31.3263 4.65077 31.1563 4.55274C30.9862 4.4547 30.7934 4.40309 30.5971 4.40308H21.9776V6.64193H29.9515L32.7612 11.4949V18.0972H31.0074V20.336H33.8806C34.4989 20.336 35 19.8349 35 19.2166V11.1941C34.9999 10.9973 34.948 10.8039 34.8497 10.6333ZM12.1268 18.0972H23.694V20.336H12.1268V18.0972ZM5.2984 18.0972H2.68644C2.06812 18.0972 1.56705 18.5983 1.56705 19.2166C1.56705 19.8349 2.06819 20.336 2.68644 20.336H5.2984C5.91671 20.336 6.41779 19.8348 6.41779 19.2166C6.41779 18.5983 5.91664 18.0972 5.2984 18.0972Z" fill="white"/>
<path d="M21.9777 10.1119H33.8803V12.3508H21.9777V10.1119ZM11.2686 6.11938H1.34318C0.724863 6.11938 0.223785 6.62053 0.223785 7.23878C0.223785 7.85702 0.724931 8.35817 1.34318 8.35817H11.2686C11.8869 8.35817 12.388 7.85702 12.388 7.23878C12.388 6.62053 11.8869 6.11938 11.2686 6.11938Z" fill="white"/>
<path d="M5.23201 9.76888L2.69839 7.23492L5.23645 4.66807C5.67115 4.22818 5.66705 3.51956 5.2275 3.08486C4.7876 2.65016 4.07898 2.65426 3.64428 3.09382L0.323363 6.45206C-0.109491 6.88977 -0.107577 7.59497 0.327875 8.03042L3.64879 11.3513C3.75256 11.4555 3.8759 11.5381 4.01173 11.5944C4.14755 11.6507 4.29317 11.6796 4.4402 11.6793C4.72642 11.6793 5.01298 11.57 5.23201 11.3517C5.6693 10.9147 5.6693 10.2058 5.23201 9.76888ZM17.1641 10.9704H7.20138C6.58307 10.9704 6.08199 11.4715 6.08199 12.0898C6.08199 12.7081 6.58314 13.2092 7.20138 13.2092H17.1641C17.7825 13.2092 18.2835 12.7084 18.2835 12.0898C18.2836 11.4714 17.7825 10.9704 17.1641 10.9704Z" fill="white"/>
<path d="M18.1839 11.3026L14.863 7.9444C14.4279 7.50485 13.7189 7.50075 13.2798 7.93545C12.8402 8.37015 12.8361 9.07911 13.2708 9.51866L15.8089 12.0855L13.2753 14.6191C12.8383 15.0561 12.8383 15.7646 13.2753 16.202C13.3791 16.3061 13.5026 16.3887 13.6385 16.445C13.7743 16.5013 13.92 16.5302 14.0671 16.53C14.2141 16.5302 14.3598 16.5013 14.4956 16.445C14.6315 16.3886 14.7548 16.3059 14.8585 16.2016L18.1794 12.8811C18.6149 12.4456 18.6168 11.7407 18.1839 11.3026Z" fill="white"/>
</svg>
