<svg width="29" height="24" viewBox="0 0 29 24" fill="none" xmlns="http://www.w3.org/2000/svg">
<path d="M19.9261 22.2919V19.9261C19.9261 18.6712 19.4276 17.4677 18.5403 16.5804C17.653 15.6931 16.4495 15.1946 15.1946 15.1946H5.73153C4.47665 15.1946 3.27317 15.6931 2.38583 16.5804C1.4985 17.4677 1 18.6712 1 19.9261L1 22.2919" stroke="white" stroke-width="2" stroke-linecap="round" stroke-linejoin="round"/>
<path d="M10.4631 10.4631C13.0762 10.4631 15.1946 8.34469 15.1946 5.73153C15.1946 3.11838 13.0762 1 10.4631 1C7.84992 1 5.73154 3.11838 5.73154 5.73153C5.73154 8.34469 7.84992 10.4631 10.4631 10.4631Z" stroke="white" stroke-width="2" stroke-linecap="round" stroke-linejoin="round"/>
<path d="M27.0234 22.2919V19.9262C27.0227 18.8778 26.6737 17.8594 26.0314 17.0308C25.3891 16.2023 24.4899 15.6105 23.4748 15.3484M18.7433 1.15381C19.761 1.4144 20.6631 2.00631 21.3073 2.83624C21.9515 3.66616 22.3012 4.68688 22.3012 5.73748C22.3012 6.78808 21.9515 7.80881 21.3073 8.63873C20.6631 9.46865 19.761 10.0606 18.7433 10.3212" stroke="white" stroke-width="2" stroke-linecap="round" stroke-linejoin="round"/>
</svg>
