<svg width="30" height="30" viewBox="0 0 30 30" fill="none" xmlns="http://www.w3.org/2000/svg">
<path fill-rule="evenodd" clip-rule="evenodd" d="M17.2327 24.489C17.2327 25.991 16.0137 27.21 14.5117 27.21C13.0098 27.21 11.7908 25.991 11.7908 24.489C11.7908 23.9884 11.3844 23.582 10.8838 23.582C10.3831 23.582 9.97681 23.9884 9.97681 24.489C9.97681 26.9923 12.0084 29.024 14.5117 29.024C17.015 29.024 19.0466 26.9923 19.0466 24.489C19.0466 23.9884 18.6403 23.582 18.1396 23.582C17.639 23.582 17.2327 23.9884 17.2327 24.489Z" fill="white"/>
<path fill-rule="evenodd" clip-rule="evenodd" d="M22.6746 22.6751H23.5821C23.5821 21.9531 23.295 21.2611 22.785 20.7513C22.2749 20.2407 21.5825 19.9541 20.8608 19.9541C17.7195 19.9541 11.3041 19.9541 8.16279 19.9541C7.44108 19.9541 6.74865 20.2407 6.23861 20.7513C5.72857 21.2611 5.44147 21.9531 5.44147 22.6751H6.34895H5.44147C5.44147 23.3971 5.72857 24.0891 6.23861 24.5988C6.74865 25.1095 7.44108 25.3961 8.16279 25.3961C11.3041 25.3961 17.7195 25.3961 20.8608 25.3961C21.5825 25.3961 22.2749 25.1095 22.785 24.5988C23.295 24.0891 23.5821 23.3971 23.5821 22.6751H22.6746ZM21.7672 22.6751H22.6746H21.7672C21.7672 22.9154 21.6726 23.1467 21.5026 23.3163C21.3314 23.4868 21.1017 23.5821 20.8608 23.5821C17.7195 23.5821 11.3041 23.5821 8.16279 23.5821C7.92185 23.5821 7.69216 23.4868 7.52102 23.3163C7.35101 23.1467 7.25643 22.9154 7.25643 22.6751H6.34895H7.25643C7.25643 22.4347 7.35101 22.2034 7.52102 22.0338C7.69216 21.8633 7.92185 21.7681 8.16279 21.7681C11.3041 21.7681 17.7195 21.7681 20.8608 21.7681C21.1017 21.7681 21.3314 21.8633 21.5026 22.0338C21.6726 22.2034 21.7672 22.4347 21.7672 22.6751Z" fill="white"/>
<path fill-rule="evenodd" clip-rule="evenodd" d="M21.767 10.8844C21.767 6.87679 18.5183 3.62793 14.5114 3.62793V4.53531V3.62793C10.5046 3.62793 7.25586 6.87679 7.25586 10.8844V20.8612C7.25586 21.3622 7.66125 21.7686 8.16257 21.7686H20.8603C21.3617 21.7686 21.767 21.3622 21.767 20.8612V10.8844ZM19.9536 19.9538V10.8844C19.9536 7.87868 17.5166 5.44268 14.5114 5.44268V4.53531V5.44268C11.5063 5.44268 9.06929 7.87868 9.06929 10.8844V19.9538H19.9536Z" fill="white"/>
<path fill-rule="evenodd" clip-rule="evenodd" d="M14.5117 0C13.0098 0 11.7908 1.219 11.7908 2.72098C11.7908 4.22297 13.0098 5.44197 14.5117 5.44197C16.0137 5.44197 17.2327 4.22297 17.2327 2.72098C17.2327 1.219 16.0137 0 14.5117 0ZM14.5117 1.81399C15.0124 1.81399 15.4187 2.22032 15.4187 2.72098C15.4187 3.22165 15.0124 3.62798 14.5117 3.62798C14.0111 3.62798 13.6047 3.22165 13.6047 2.72098C13.6047 2.22032 14.0111 1.81399 14.5117 1.81399Z" fill="white"/>
<path fill-rule="evenodd" clip-rule="evenodd" d="M4.53491 10.8838H0.906985C0.406331 10.8838 2.86102e-06 11.2901 2.86102e-06 11.7908C2.86102e-06 12.2914 0.406331 12.6978 0.906985 12.6978H4.53491C5.03557 12.6978 5.44189 12.2914 5.44189 11.7908C5.44189 11.2901 5.03557 10.8838 4.53491 10.8838Z" fill="white"/>
<path fill-rule="evenodd" clip-rule="evenodd" d="M24.4886 12.6978H28.1165C28.6171 12.6978 29.0235 12.2914 29.0235 11.7908C29.0235 11.2901 28.6171 10.8838 28.1165 10.8838H24.4886C23.9879 10.8838 23.5816 11.2901 23.5816 11.7908C23.5816 12.2914 23.9879 12.6978 24.4886 12.6978Z" fill="white"/>
<path fill-rule="evenodd" clip-rule="evenodd" d="M5.17657 3.8943L2.61124 1.32893C2.25722 0.974909 1.68259 0.974909 1.32857 1.32893C0.974558 1.68295 0.974558 2.25759 1.32857 2.61162L3.8939 5.17699C4.24792 5.53101 4.82255 5.53101 5.17657 5.17699C5.53058 4.82297 5.53058 4.24832 5.17657 3.8943Z" fill="white"/>
<path fill-rule="evenodd" clip-rule="evenodd" d="M25.13 5.1765L27.6954 2.61113C28.0494 2.25711 28.0494 1.68246 27.6954 1.32844C27.3413 0.974421 26.7667 0.97442 26.4127 1.32844L23.8474 3.89381C23.4933 4.24783 23.4933 4.82248 23.8474 5.1765C24.2014 5.53052 24.776 5.53052 25.13 5.1765Z" fill="white"/>
<path fill-rule="evenodd" clip-rule="evenodd" d="M3.8939 18.4055L1.32857 20.9709C0.974558 21.3249 0.974558 21.8996 1.32857 22.2536C1.68259 22.6076 2.25722 22.6076 2.61124 22.2536L5.17657 19.6882C5.53058 19.3342 5.53058 18.7596 5.17657 18.4055C4.82255 18.0515 4.24792 18.0515 3.8939 18.4055Z" fill="white"/>
<path fill-rule="evenodd" clip-rule="evenodd" d="M23.8469 19.6882L26.4122 22.2536C26.7663 22.6076 27.3409 22.6076 27.6949 22.2536C28.0489 21.8996 28.0489 21.3249 27.6949 20.9709L25.1296 18.4055C24.7756 18.0515 24.2009 18.0515 23.8469 18.4055C23.4929 18.7596 23.4929 19.3342 23.8469 19.6882Z" fill="white"/>
</svg>
