<svg width="385" height="385" viewBox="0 0 385 385" fill="none" xmlns="http://www.w3.org/2000/svg">
<path d="M321.37 149.265C314.805 129.937 303.975 112.335 289.68 97.7626C275.386 83.1907 257.995 72.0233 238.797 65.0885C219.599 58.1538 199.085 55.6295 178.779 57.703C158.472 59.7764 138.892 66.3944 121.492 77.0661L160.932 141.374C168.68 136.622 177.399 133.675 186.442 132.752C195.484 131.829 204.619 132.953 213.168 136.041C221.717 139.129 229.461 144.102 235.826 150.591C242.191 157.079 247.014 164.918 249.937 173.525L321.37 149.265Z" fill="#FF4B49"/>
<path d="M136.748 68.323C110.032 80.3178 87.8965 100.609 73.6289 126.184C59.3612 151.759 53.7222 181.253 57.5491 210.287C61.376 239.321 74.4648 266.347 94.8719 287.352C115.279 308.356 141.916 322.219 170.828 326.881L182.849 252.34C169.975 250.263 158.113 244.09 149.026 234.737C139.939 225.384 134.111 213.349 132.406 200.42C130.702 187.491 133.213 174.358 139.567 162.969C145.92 151.581 155.777 142.545 167.674 137.204L136.748 68.323Z" fill="#FFADAC"/>
<path d="M135.579 316.087C160.044 327.323 187.291 331.053 213.875 326.804C240.459 322.555 265.186 310.519 284.93 292.217C304.673 273.914 318.546 250.169 324.794 223.982C331.042 197.795 329.384 170.344 320.031 145.1L249.23 171.333C253.395 182.574 254.133 194.798 251.351 206.459C248.568 218.12 242.391 228.694 233.599 236.844C224.808 244.994 213.796 250.354 201.959 252.246C190.121 254.138 177.988 252.477 167.094 247.473L135.579 316.087Z" fill="#F7CFCE"/>
</svg>
